<?xml version="1.0" encoding="UTF-8" standalone="no"?>
<!-- Created with Inkscape (http://www.inkscape.org/) -->

<svg
   xmlns:dc="http://purl.org/dc/elements/1.1/"
   xmlns:cc="http://creativecommons.org/ns#"
   xmlns:rdf="http://www.w3.org/1999/02/22-rdf-syntax-ns#"
   xmlns:svg="http://www.w3.org/2000/svg"
   xmlns="http://www.w3.org/2000/svg"
   xmlns:sodipodi="http://sodipodi.sourceforge.net/DTD/sodipodi-0.dtd"
   xmlns:inkscape="http://www.inkscape.org/namespaces/inkscape"
   id="svg11396"
   version="1.1"
   inkscape:version="0.48.4 r9939"
   width="633.75"
   height="615.61875"
   xml:space="preserve"
   sodipodi:docname="Logo Longevity.ai"><metadata
     id="metadata11402"><rdf:RDF><cc:Work
         rdf:about=""><dc:format>image/svg+xml</dc:format><dc:type
           rdf:resource="http://purl.org/dc/dcmitype/StillImage" /><dc:title></dc:title></cc:Work></rdf:RDF></metadata><defs
     id="defs11400"><clipPath
       clipPathUnits="userSpaceOnUse"
       id="clipPath11424"><path
         d="m 0,492.495 507,0 L 507,0 0,0 0,492.495 z"
         id="path11426" /></clipPath><clipPath
       clipPathUnits="userSpaceOnUse"
       id="clipPath11538"><path
         d="m 199.897,347.483 c -0.025,-29.776 24.095,-53.929 53.87,-53.953 l 0,0 c 29.774,-0.024 53.933,24.097 53.956,53.872 l 0,0 c 0.022,29.775 -24.096,53.931 -53.874,53.953 l 0,0 c -0.015,0 -0.026,0 -0.04,0 l 0,0 c -29.755,-0.002 -53.889,-24.112 -53.912,-53.872"
         id="path11540" /></clipPath><clipPath
       clipPathUnits="userSpaceOnUse"
       id="clipPath11550"><path
         d="m 229.034,339.611 c -10.248,-8.422 -13.666,-18.181 -13.68,-25.839 l 0,0 c -14.135,11.509 -15.856,34.464 -14.285,43.744 l 0,0 c -0.917,-4.189 -1.027,-5.49 -1.027,-10.139 l 0,0 c 0,-14.936 6.09,-28.437 15.909,-38.198 l 0,0 c 0.012,-0.052 0.023,-0.104 0.035,-0.156 l 0,0 c 3.433,-3.38 7.318,-6.304 11.554,-8.672 l 0,0 c -11.491,24.981 41.988,25.857 59.409,62.129 l 0,0 c 4.717,9.828 3.229,19.549 -0.38,27.785 l 0,0 c -3.317,2.541 -6.941,4.708 -10.803,6.431 l 0,0 c 10.253,-22.496 -26.33,-40.32 -46.732,-57.085 m -27.965,17.905 c 0.129,0.588 0.274,1.233 0.436,1.953 l 0,0 c -0.163,-0.555 -0.31,-1.21 -0.436,-1.953"
         id="path11552" /></clipPath><linearGradient
       x1="0"
       y1="0"
       x2="1"
       y2="0"
       gradientUnits="userSpaceOnUse"
       gradientTransform="matrix(-111.63326,-132.1371,-132.1371,111.63327,281.54785,399.24512)"
       spreadMethod="pad"
       id="linearGradient11558"><stop
         style="stop-opacity:1;stop-color:#47b754"
         offset="0"
         id="stop11560" /><stop
         style="stop-opacity:1;stop-color:#70c281"
         offset="0.449173"
         id="stop11562" /><stop
         style="stop-opacity:1;stop-color:#70c281"
         offset="0.449173"
         id="stop11564" /><stop
         style="stop-opacity:1;stop-color:#abd8b0"
         offset="0.920242"
         id="stop11566" /><stop
         style="stop-opacity:1;stop-color:#abd8b0"
         offset="1"
         id="stop11568" /></linearGradient><clipPath
       clipPathUnits="userSpaceOnUse"
       id="clipPath11576"><path
         d="m 199.897,347.483 c -0.025,-29.776 24.095,-53.929 53.87,-53.953 29.774,-0.024 53.933,24.097 53.956,53.872 0.022,29.775 -24.096,53.931 -53.874,53.953 -0.015,0 -0.026,0 -0.04,0 -29.755,-0.002 -53.889,-24.112 -53.912,-53.872"
         id="path11578" /></clipPath><clipPath
       clipPathUnits="userSpaceOnUse"
       id="clipPath11584"><path
         d="m 307.332,354.9 c -0.215,1.544 -0.476,3.071 -0.818,4.569 0.312,-1.561 0.586,-3.148 0.779,-4.755 0.012,0.06 0.026,0.126 0.039,0.186"
         id="path11586" /></clipPath><linearGradient
       x1="0"
       y1="0"
       x2="1"
       y2="0"
       gradientUnits="userSpaceOnUse"
       gradientTransform="matrix(1.7530212,-6.0021362,-6.0021362,-1.7530212,306.01367,360.13623)"
       spreadMethod="pad"
       id="linearGradient11592"><stop
         style="stop-opacity:1;stop-color:#883138"
         offset="0"
         id="stop11594" /><stop
         style="stop-opacity:1;stop-color:#ca3d63"
         offset="0.294479"
         id="stop11596" /><stop
         style="stop-opacity:1;stop-color:#fad3e4"
         offset="1"
         id="stop11598" /></linearGradient><clipPath
       clipPathUnits="userSpaceOnUse"
       id="clipPath11606"><path
         d="m 229.841,395.746 c -0.999,-0.511 -1.914,-1.012 -2.731,-1.481 l 0,0 c -0.684,-1.294 -1.47,-2.816 -1.612,-3.125 l 0,0 c -3.835,-8.36 -5.55,-18.324 -0.739,-28.42 l 0,0 c 12.832,-26.921 41.09,-32.192 55.958,-45.788 l 0,0 c 1.948,-1.782 4.29,-4.466 5.279,-9.355 l 0,0 c 0,0 9.83,6.176 13.505,12.325 l 0,0 c 0.097,0.163 0.251,0.634 0.45,1.351 l 0,0 c -0.919,-1.506 -2.699,-3.24 -3.81,-4.621 l 0,0 c -0.246,6.852 -4.466,15.605 -13.547,23.034 l 0,0 c -21.704,17.756 -59.705,33.109 -46.46,58.565 l 0,0 c 0.014,0.028 0.054,0.099 0.109,0.196 l 0,0 c -2.202,-0.758 -4.34,-1.656 -6.402,-2.681"
         id="path11608" /></clipPath><linearGradient
       x1="0"
       y1="0"
       x2="1"
       y2="0"
       gradientUnits="userSpaceOnUse"
       gradientTransform="matrix(75.562851,-79.201416,-79.201416,-75.562836,218.19141,391.61279)"
       spreadMethod="pad"
       id="linearGradient11614"><stop
         style="stop-opacity:1;stop-color:#47b754"
         offset="0"
         id="stop11616" /><stop
         style="stop-opacity:1;stop-color:#70c281"
         offset="0.411041"
         id="stop11618" /><stop
         style="stop-opacity:1;stop-color:#abd8b0"
         offset="0.920242"
         id="stop11620" /><stop
         style="stop-opacity:1;stop-color:#abd8b0"
         offset="1"
         id="stop11622" /></linearGradient><clipPath
       clipPathUnits="userSpaceOnUse"
       id="clipPath11630"><path
         d="m 199.897,347.483 c -0.025,-29.776 24.095,-53.929 53.87,-53.953 l 0,0 c 29.774,-0.024 53.933,24.097 53.956,53.872 l 0,0 c 0.022,29.775 -24.096,53.931 -53.874,53.953 l 0,0 c -0.015,0 -0.026,0 -0.04,0 l 0,0 c -29.755,-0.002 -53.889,-24.112 -53.912,-53.872"
         id="path11632" /></clipPath><clipPath
       clipPathUnits="userSpaceOnUse"
       id="clipPath11638"><path
         d="m 221.948,394.261 77.545,0 0,-82.877 -77.545,0 0,82.877 z"
         id="path11640" /></clipPath><clipPath
       clipPathUnits="userSpaceOnUse"
       id="clipPath11642"><path
         d="m 299.397,319.909 c 0.023,0.037 0.05,0.075 0.074,0.112 0.007,0.011 0.015,0.035 0.022,0.049 -0.037,-0.054 -0.081,-0.109 -0.119,-0.164 l 0.023,0.003 z"
         id="path11644" /></clipPath><clipPath
       clipPathUnits="userSpaceOnUse"
       id="clipPath11646"><path
         d="m -32768,32767 65535,0 0,-65534 -65535,0 0,65534 z"
         id="path11648" /></clipPath><linearGradient
       x1="0"
       y1="0"
       x2="1"
       y2="0"
       gradientUnits="userSpaceOnUse"
       gradientTransform="matrix(0.0479889,-0.1643219,-0.1643219,-0.0479889,299.41016,320.07031)"
       spreadMethod="pad"
       id="linearGradient11650"><stop
         style="stop-opacity:0.53000687;stop-color:#ffffff"
         offset="0"
         id="stop11652" /><stop
         style="stop-opacity:1;stop-color:#ffffff"
         offset="0.361969"
         id="stop11654" /><stop
         style="stop-opacity:0.2;stop-color:#ffffff"
         offset="1"
         id="stop11656" /></linearGradient><mask
       maskUnits="userSpaceOnUse"
       x="0"
       y="0"
       width="1"
       height="1"
       id="mask11658"><g
         id="g11660"><g
           clip-path="url(#clipPath11646)"
           id="g11662"><g
             id="g11664"><g
               id="g11666"><path
                 d="m -32768,32767 65535,0 0,-65534 -65535,0 0,65534 z"
                 style="fill:url(#linearGradient11650);stroke:none"
                 id="path11668" /></g></g></g></g></mask><linearGradient
       x1="0"
       y1="0"
       x2="1"
       y2="0"
       gradientUnits="userSpaceOnUse"
       gradientTransform="matrix(0.0479889,-0.1643219,-0.1643219,-0.0479889,299.41016,320.07031)"
       spreadMethod="pad"
       id="linearGradient11670"><stop
         style="stop-opacity:1;stop-color:#ffffff"
         offset="0"
         id="stop11672" /><stop
         style="stop-opacity:1;stop-color:#ffffff"
         offset="0.484665"
         id="stop11674" /><stop
         style="stop-opacity:1;stop-color:#ffffff"
         offset="1"
         id="stop11676" /></linearGradient><clipPath
       clipPathUnits="userSpaceOnUse"
       id="clipPath11678"><path
         d="m 277.433,320.816 c -15.485,11.416 -40.27,17.884 -52.051,42.6 -4.811,10.096 -3.095,20.06 0.74,28.42 0.116,0.253 0.67,1.331 1.244,2.425 -0.042,-0.024 -0.091,-0.049 -0.131,-0.072 -0.683,-1.294 -1.469,-2.816 -1.611,-3.125 -3.835,-8.36 -5.551,-18.324 -0.739,-28.419 12.832,-26.921 41.091,-32.193 55.957,-45.789 1.353,-1.237 2.886,-2.93 4.033,-5.472 -1.162,4.133 -6.061,8.414 -7.442,9.432"
         id="path11680" /></clipPath><clipPath
       clipPathUnits="userSpaceOnUse"
       id="clipPath11682"><path
         d="m -32768,32767 65535,0 0,-65534 -65535,0 0,65534 z"
         id="path11684" /></clipPath><linearGradient
       x1="0"
       y1="0"
       x2="1"
       y2="0"
       gradientUnits="userSpaceOnUse"
       gradientTransform="matrix(35.620026,-121.95868,-121.95868,-35.620026,232.24609,413.79541)"
       spreadMethod="pad"
       id="linearGradient11686"><stop
         style="stop-opacity:0.53000687;stop-color:#ffffff"
         offset="0"
         id="stop11688" /><stop
         style="stop-opacity:1;stop-color:#ffffff"
         offset="0.361969"
         id="stop11690" /><stop
         style="stop-opacity:0.2;stop-color:#ffffff"
         offset="1"
         id="stop11692" /></linearGradient><mask
       maskUnits="userSpaceOnUse"
       x="0"
       y="0"
       width="1"
       height="1"
       id="mask11694"><g
         id="g11696"><g
           clip-path="url(#clipPath11682)"
           id="g11698"><g
             id="g11700"><g
               id="g11702"><path
                 d="m -32768,32767 65535,0 0,-65534 -65535,0 0,65534 z"
                 style="fill:url(#linearGradient11686);stroke:none"
                 id="path11704" /></g></g></g></g></mask><linearGradient
       x1="0"
       y1="0"
       x2="1"
       y2="0"
       gradientUnits="userSpaceOnUse"
       gradientTransform="matrix(35.620026,-121.95868,-121.95868,-35.620026,232.24609,413.79541)"
       spreadMethod="pad"
       id="linearGradient11706"><stop
         style="stop-opacity:1;stop-color:#ffffff"
         offset="0"
         id="stop11708" /><stop
         style="stop-opacity:1;stop-color:#ffffff"
         offset="0.484665"
         id="stop11710" /><stop
         style="stop-opacity:1;stop-color:#ffffff"
         offset="1"
         id="stop11712" /></linearGradient><clipPath
       clipPathUnits="userSpaceOnUse"
       id="clipPath11750"><path
         d="m 199.766,347.442 c 0,-29.848 24.196,-54.043 54.047,-54.043 l 0,0 c 29.845,0 54.042,24.195 54.042,54.043 l 0,0 c 0,29.849 -24.197,54.044 -54.042,54.044 l 0,0 c -29.851,0 -54.047,-24.195 -54.047,-54.044 m 2.31,1.541 c 0,28.571 23.161,51.734 51.737,51.734 l 0,0 c 28.571,0 51.731,-23.163 51.731,-51.734 l 0,0 c 0,-28.571 -23.16,-51.734 -51.731,-51.734 l 0,0 c -28.576,0 -51.737,23.163 -51.737,51.734"
         id="path11752" /></clipPath><linearGradient
       x1="0"
       y1="0"
       x2="1"
       y2="0"
       gradientUnits="userSpaceOnUse"
       gradientTransform="matrix(-1.213974,116.54436,116.54436,1.213974,254.39648,291.20654)"
       spreadMethod="pad"
       id="linearGradient11758"><stop
         style="stop-opacity:1;stop-color:#47b754"
         offset="0"
         id="stop11760" /><stop
         style="stop-opacity:1;stop-color:#70c281"
         offset="0.448273"
         id="stop11762" /><stop
         style="stop-opacity:1;stop-color:#abd8b0"
         offset="0.827484"
         id="stop11764" /><stop
         style="stop-opacity:1;stop-color:#abd8b0"
         offset="1"
         id="stop11766" /></linearGradient><clipPath
       clipPathUnits="userSpaceOnUse"
       id="clipPath11774"><path
         d="m 139.159,301.91 c -1.811,37.233 20.973,103.674 87.13,123.612 l 0,0 -20.547,7.102 -7.095,12.921 C 155.161,425.467 119.121,364.984 139.159,301.91"
         id="path11776" /></clipPath><linearGradient
       x1="0"
       y1="0"
       x2="1"
       y2="0"
       gradientUnits="userSpaceOnUse"
       gradientTransform="matrix(87.393082,112.29451,112.29451,-87.393066,140.54102,346.39844)"
       spreadMethod="pad"
       id="linearGradient11782"><stop
         style="stop-opacity:1;stop-color:#008dd1"
         offset="0"
         id="stop11784" /><stop
         style="stop-opacity:1;stop-color:#00aeee"
         offset="0.349686"
         id="stop11786" /><stop
         style="stop-opacity:1;stop-color:#d0eefc"
         offset="0.791412"
         id="stop11788" /><stop
         style="stop-opacity:1;stop-color:#ffffff"
         offset="1"
         id="stop11790" /></linearGradient><clipPath
       clipPathUnits="userSpaceOnUse"
       id="clipPath11798"><path
         d="m 141.511,299.446 c 10.532,-34.101 39.834,-65.359 80.087,-75.357 l 0,0 c 12.838,-3.189 20.259,-1.941 22.908,-0.032 l 0,0 c -12.218,0.28 -73.534,19.217 -95.612,121.401 l 0,0 c -3.721,-15.573 -7.677,-27.489 -7.383,-46.012"
         id="path11800" /></clipPath><linearGradient
       x1="0"
       y1="0"
       x2="1"
       y2="0"
       gradientUnits="userSpaceOnUse"
       gradientTransform="matrix(82.001694,-101.07121,101.07123,82.001694,151.46582,308.56299)"
       spreadMethod="pad"
       id="linearGradient11806"><stop
         style="stop-opacity:1;stop-color:#245499"
         offset="0"
         id="stop11808" /><stop
         style="stop-opacity:1;stop-color:#008dd1"
         offset="0.349686"
         id="stop11810" /><stop
         style="stop-opacity:1;stop-color:#00b5f1"
         offset="0.791412"
         id="stop11812" /><stop
         style="stop-opacity:1;stop-color:#ffffff"
         offset="1"
         id="stop11814" /></linearGradient><clipPath
       clipPathUnits="userSpaceOnUse"
       id="clipPath11822"><path
         d="m 180.779,331.259 c 0,0 7.155,-23.042 11.547,-36.293 l 0,0 c 4.392,-13.25 42.994,-41.595 42.994,-41.595 l 0,0 c 0,0 -2.273,1.118 -5.978,2.897 l 0,0 c 3.959,-8.047 0.045,-19.581 -5.882,-23.136 l 0,0 c 3.357,-4.572 17.903,-8.651 21.448,-8.651 l 0,0 c 3.289,5.417 11.57,25.369 0.912,49.389 l 0,0 c -3.076,6.928 -9.635,13.293 -17.711,15.717 l 0,0 c -5.438,1.63 -16.055,22.503 -21.401,18.622 l 0,0 c 0,0 -2.862,-1.429 2.794,-11.419 l 0,0 c 2.117,-3.737 5.733,-10.343 5.733,-10.343 l 0,0 C 203.218,297.065 194.26,317.134 193,320.231 l 0,0 c -4.008,9.853 -8.562,11.242 -10.811,11.242 l 0,0 c -0.883,0 -1.41,-0.214 -1.41,-0.214 m 34.456,-44.812 c 0.002,-0.003 0.034,-0.048 0.075,-0.107 l 0,0 c -0.029,0.037 -0.045,0.064 -0.075,0.107 m 1.228,-1.735 c 0.026,-0.038 0.041,-0.059 0.04,-0.059 l 0,0 c 0,0 -0.013,0.019 -0.04,0.059"
         id="path11824" /></clipPath><linearGradient
       x1="0"
       y1="0"
       x2="1"
       y2="0"
       gradientUnits="userSpaceOnUse"
       gradientTransform="matrix(-32.823914,97.996353,97.996353,32.823929,237.27832,230.51855)"
       spreadMethod="pad"
       id="linearGradient11830"><stop
         style="stop-opacity:1;stop-color:#0098db"
         offset="0"
         id="stop11832" /><stop
         style="stop-opacity:1;stop-color:#95daf8"
         offset="0.809814"
         id="stop11834" /><stop
         style="stop-opacity:1;stop-color:#95daf8"
         offset="1"
         id="stop11836" /></linearGradient><clipPath
       clipPathUnits="userSpaceOnUse"
       id="clipPath11844"><path
         d="m 0,492.495 507,0 L 507,0 0,0 0,492.495 z"
         id="path11846" /></clipPath><clipPath
       clipPathUnits="userSpaceOnUse"
       id="clipPath11852"><path
         d="m 181.502,330.499 68.84,0 0,-103.479 -68.84,0 0,103.479 z"
         id="path11854" /></clipPath><clipPath
       clipPathUnits="userSpaceOnUse"
       id="clipPath11856"><path
         d="m 230.692,250.479 c 0,0 -0.305,0.273 -0.843,0.764 0.018,-0.096 0.044,-0.189 0.063,-0.285 0.5,-0.305 0.78,-0.479 0.78,-0.479"
         id="path11858" /></clipPath><linearGradient
       x1="0"
       y1="0"
       x2="1"
       y2="0"
       gradientUnits="userSpaceOnUse"
       gradientTransform="matrix(-0.84375,0,0,-0.84375,230.69238,250.86133)"
       spreadMethod="pad"
       id="linearGradient11860"><stop
         style="stop-opacity:1;stop-color:#0090bc"
         offset="0"
         id="stop11862" /><stop
         style="stop-opacity:1;stop-color:#8bd4f6"
         offset="0.243759"
         id="stop11864" /><stop
         style="stop-opacity:1;stop-color:#eaf7fe"
         offset="0.586227"
         id="stop11866" /><stop
         style="stop-opacity:1;stop-color:#53b4cf"
         offset="1"
         id="stop11868" /></linearGradient><clipPath
       clipPathUnits="userSpaceOnUse"
       id="clipPath11900"><path
         d="m 301.258,432.093 -20.547,-7.102 c 66.156,-19.937 88.941,-86.376 87.13,-123.612 l 0,0 c 20.038,63.077 -16.001,123.559 -59.488,143.635 l 0,0 -7.095,-12.921 z"
         id="path11902" /></clipPath><linearGradient
       x1="0"
       y1="0"
       x2="1"
       y2="0"
       gradientUnits="userSpaceOnUse"
       gradientTransform="matrix(-87.392792,112.29414,-112.29414,-87.392792,366.45898,345.86719)"
       spreadMethod="pad"
       id="linearGradient11908"><stop
         style="stop-opacity:1;stop-color:#008dd1"
         offset="0"
         id="stop11910" /><stop
         style="stop-opacity:1;stop-color:#00aeee"
         offset="0.349686"
         id="stop11912" /><stop
         style="stop-opacity:1;stop-color:#d0eefc"
         offset="0.791412"
         id="stop11914" /><stop
         style="stop-opacity:1;stop-color:#ffffff"
         offset="1"
         id="stop11916" /></linearGradient><clipPath
       clipPathUnits="userSpaceOnUse"
       id="clipPath11924"><path
         d="m 262.494,223.528 c 2.649,-1.912 10.07,-3.156 22.909,0.032 l 0,0 c 40.253,9.999 69.554,41.253 80.086,75.355 l 0,0 c 0.294,18.526 -3.662,30.438 -7.384,46.011 l 0,0 C 336.029,242.743 274.711,223.806 262.494,223.528"
         id="path11926" /></clipPath><linearGradient
       x1="0"
       y1="0"
       x2="1"
       y2="0"
       gradientUnits="userSpaceOnUse"
       gradientTransform="matrix(-82.000381,-101.06961,-101.06961,82.000397,355.53516,308.03174)"
       spreadMethod="pad"
       id="linearGradient11932"><stop
         style="stop-opacity:1;stop-color:#245499"
         offset="0"
         id="stop11934" /><stop
         style="stop-opacity:1;stop-color:#008dd1"
         offset="0.349686"
         id="stop11936" /><stop
         style="stop-opacity:1;stop-color:#00b5f1"
         offset="0.791412"
         id="stop11938" /><stop
         style="stop-opacity:1;stop-color:#ffffff"
         offset="1"
         id="stop11940" /></linearGradient><clipPath
       clipPathUnits="userSpaceOnUse"
       id="clipPath11948"><path
         d="m 314.001,319.702 c -1.261,-3.099 -10.219,-23.168 -22.237,-33.786 l 0,0 c 0,0 3.616,6.607 5.733,10.342 l 0,0 c 5.656,9.991 2.794,11.42 2.794,11.42 l 0,0 c -5.346,3.884 -15.962,-16.992 -21.401,-18.622 l 0,0 c -8.076,-2.422 -14.634,-8.79 -17.709,-15.718 l 0,0 c -10.66,-24.02 -1.976,-43.852 1.313,-49.269 l 0,0 c 5.106,0.412 17.448,3.92 21.534,8.34 l 0,0 c -5.926,3.557 -10.329,15.284 -6.37,23.327 l 0,0 c -3.706,-1.775 -5.979,-2.896 -5.979,-2.896 l 0,0 c 0,0 38.602,28.345 42.995,41.595 l 0,0 c 4.392,13.25 11.548,36.296 11.548,36.296 l 0,0 c 0,0 -0.527,0.214 -1.409,0.214 l 0,0 c -2.249,0 -6.803,-1.388 -10.812,-11.243 m -22.276,-33.841 c -0.01,-0.016 -0.021,-0.032 -0.035,-0.05 l 0,0 c 0.013,0.018 0.025,0.035 0.035,0.05 m -1.144,-1.617 c 0,0 0,0 0,0 m -0.044,-0.064 c -0.028,-0.04 -0.041,-0.058 -0.041,-0.058 l 0,0 c 0,0 0.014,0.021 0.041,0.058"
         id="path11950" /></clipPath><linearGradient
       x1="0"
       y1="0"
       x2="1"
       y2="0"
       gradientUnits="userSpaceOnUse"
       gradientTransform="matrix(32.759354,97.803558,-97.803558,32.759354,269.7959,230.2002)"
       spreadMethod="pad"
       id="linearGradient11956"><stop
         style="stop-opacity:1;stop-color:#0098db"
         offset="0"
         id="stop11958" /><stop
         style="stop-opacity:1;stop-color:#95daf8"
         offset="0.815948"
         id="stop11960" /><stop
         style="stop-opacity:1;stop-color:#95daf8"
         offset="1"
         id="stop11962" /></linearGradient><clipPath
       clipPathUnits="userSpaceOnUse"
       id="clipPath11970"><path
         d="m 314.001,319.702 c -1.261,-3.099 -10.219,-23.168 -22.237,-33.786 l 0,0 c 0,0 3.616,6.607 5.733,10.342 l 0,0 c 5.656,9.991 2.794,11.42 2.794,11.42 l 0,0 c -5.346,3.884 -15.962,-16.992 -21.401,-18.622 l 0,0 c -8.076,-2.422 -14.634,-8.79 -17.709,-15.718 l 0,0 c -10.66,-24.02 -1.976,-43.852 1.313,-49.269 l 0,0 c 4.687,0.412 16.463,3.389 21.534,8.34 l 0,0 c -5.926,3.557 -10.329,15.284 -6.37,23.327 l 0,0 c -3.706,-1.775 -5.979,-2.896 -5.979,-2.896 l 0,0 c 0,0 38.602,28.345 42.995,41.595 l 0,0 c 4.392,13.25 11.548,36.296 11.548,36.296 l 0,0 c 0,0 -0.527,0.214 -1.409,0.214 l 0,0 c -2.249,0 -6.803,-1.388 -10.812,-11.243 m -22.276,-33.841 c -0.01,-0.016 -0.021,-0.032 -0.035,-0.05 l 0,0 c 0.013,0.018 0.025,0.035 0.035,0.05 m -1.144,-1.617 c 0,0 0,0 0,0 m -0.044,-0.064 c -0.028,-0.04 -0.041,-0.058 -0.041,-0.058 l 0,0 c 0,0 0.014,0.021 0.041,0.058"
         id="path11972" /></clipPath><clipPath
       clipPathUnits="userSpaceOnUse"
       id="clipPath11978"><path
         d="m -32767,32767 65534,0 0,-65534 -65534,0 0,65534 z"
         id="path11980" /></clipPath><radialGradient
       fx="-0.156616"
       fy="-0.155945"
       cx="0"
       cy="0"
       r="1"
       gradientUnits="userSpaceOnUse"
       gradientTransform="matrix(-33.595581,0,0,-33.595581,261.18457,280.2251)"
       spreadMethod="pad"
       id="radialGradient11982"><stop
         style="stop-opacity:1;stop-color:#ffffff"
         offset="0"
         id="stop11984" /><stop
         style="stop-opacity:0;stop-color:#ffffff"
         offset="1"
         id="stop11986" /></radialGradient><mask
       maskUnits="userSpaceOnUse"
       x="0"
       y="0"
       width="1"
       height="1"
       id="mask11988"><g
         id="g11990"><g
           clip-path="url(#clipPath11978)"
           id="g11992"><g
             id="g11994"><g
               id="g11996"><path
                 d="m -32767,32767 65534,0 0,-65534 -65534,0 0,65534 z"
                 style="fill:url(#radialGradient11982);stroke:none"
                 id="path11998" /></g></g></g></g></mask><radialGradient
       fx="-0.156616"
       fy="-0.155945"
       cx="0"
       cy="0"
       r="1"
       gradientUnits="userSpaceOnUse"
       gradientTransform="matrix(-33.595581,0,0,-33.595581,261.18457,280.2251)"
       spreadMethod="pad"
       id="radialGradient12004"><stop
         style="stop-opacity:1;stop-color:#ffffff"
         offset="0"
         id="stop12006" /><stop
         style="stop-opacity:1;stop-color:#ffffff"
         offset="1"
         id="stop12008" /></radialGradient><clipPath
       clipPathUnits="userSpaceOnUse"
       id="clipPath12016"><path
         d="m 0,492.495 507,0 L 507,0 0,0 0,492.495 z"
         id="path12018" /></clipPath><clipPath
       clipPathUnits="userSpaceOnUse"
       id="clipPath12024"><path
         d="m 256.658,329.967 68.84,0 0,-103.475 -68.84,0 0,103.475 z"
         id="path12026" /></clipPath><clipPath
       clipPathUnits="userSpaceOnUse"
       id="clipPath12028"><path
         d="m 276.308,249.948 c 0,0 0.305,0.273 0.843,0.764 -0.019,-0.094 -0.045,-0.19 -0.063,-0.283 -0.5,-0.307 -0.78,-0.481 -0.78,-0.481"
         id="path12030" /></clipPath><linearGradient
       x1="0"
       y1="0"
       x2="1"
       y2="0"
       gradientUnits="userSpaceOnUse"
       gradientTransform="matrix(0.84375,0,0,-0.84375,276.30762,250.33008)"
       spreadMethod="pad"
       id="linearGradient12032"><stop
         style="stop-opacity:1;stop-color:#0090bc"
         offset="0"
         id="stop12034" /><stop
         style="stop-opacity:1;stop-color:#8bd4f6"
         offset="0.243759"
         id="stop12036" /><stop
         style="stop-opacity:1;stop-color:#eaf7fe"
         offset="0.586227"
         id="stop12038" /><stop
         style="stop-opacity:1;stop-color:#53b4cf"
         offset="1"
         id="stop12040" /></linearGradient><clipPath
       clipPathUnits="userSpaceOnUse"
       id="clipPath12072"><path
         d="m 180.777,331.259 c 0,0 7.155,-23.042 11.549,-36.293 l 0,0 c 4.391,-13.25 42.993,-41.595 42.993,-41.595 l 0,0 c 0,0 -2.273,1.118 -5.979,2.897 l 0,0 c 3.96,-8.047 0.047,-19.581 -5.88,-23.136 l 0,0 c 5.072,-4.953 16.49,-8.472 21.448,-8.651 l 0,0 c 3.29,5.417 11.57,25.369 0.911,49.389 l 0,0 c -3.076,6.928 -9.635,13.293 -17.71,15.717 l 0,0 c -5.439,1.63 -16.056,22.503 -21.402,18.622 l 0,0 c 0,0 -2.862,-1.429 2.794,-11.419 l 0,0 c 2.117,-3.737 5.733,-10.343 5.733,-10.343 l 0,0 c -12.018,10.618 -20.975,30.687 -22.235,33.784 l 0,0 c -4.008,9.853 -8.562,11.242 -10.812,11.242 l 0,0 c -0.883,0 -1.41,-0.214 -1.41,-0.214 m 34.457,-44.812 c 0.003,-0.003 0.034,-0.048 0.074,-0.107 l 0,0 c -0.028,0.037 -0.044,0.064 -0.074,0.107 m 1.183,-1.671 c 0.001,-0.002 0.002,-0.004 0.003,-0.005 l 0,0 c -10e-4,10e-4 -0.002,0.003 -0.003,0.005 m 0.044,-0.064 c 0.027,-0.038 0.041,-0.059 0.041,-0.059 l 0,0 c 0,0 -0.013,0.019 -0.041,0.059"
         id="path12074" /></clipPath><clipPath
       clipPathUnits="userSpaceOnUse"
       id="clipPath12080"><path
         d="m -32767,32767 65534,0 0,-65534 -65534,0 0,65534 z"
         id="path12082" /></clipPath><radialGradient
       fx="-0.156616"
       fy="-0.155945"
       cx="0"
       cy="0"
       r="1"
       gradientUnits="userSpaceOnUse"
       gradientTransform="matrix(33.63327,0,0,-33.633255,245.08203,282.66113)"
       spreadMethod="pad"
       id="radialGradient12084"><stop
         style="stop-opacity:1;stop-color:#ffffff"
         offset="0"
         id="stop12086" /><stop
         style="stop-opacity:0;stop-color:#ffffff"
         offset="1"
         id="stop12088" /></radialGradient><mask
       maskUnits="userSpaceOnUse"
       x="0"
       y="0"
       width="1"
       height="1"
       id="mask12090"><g
         id="g12092"><g
           clip-path="url(#clipPath12080)"
           id="g12094"><g
             id="g12096"><g
               id="g12098"><path
                 d="m -32767,32767 65534,0 0,-65534 -65534,0 0,65534 z"
                 style="fill:url(#radialGradient12084);stroke:none"
                 id="path12100" /></g></g></g></g></mask><radialGradient
       fx="-0.156616"
       fy="-0.155945"
       cx="0"
       cy="0"
       r="1"
       gradientUnits="userSpaceOnUse"
       gradientTransform="matrix(33.63327,0,0,-33.633255,245.08203,282.66113)"
       spreadMethod="pad"
       id="radialGradient12106"><stop
         style="stop-opacity:1;stop-color:#ffffff"
         offset="0"
         id="stop12108" /><stop
         style="stop-opacity:1;stop-color:#ffffff"
         offset="1"
         id="stop12110" /></radialGradient><clipPath
       clipPathUnits="userSpaceOnUse"
       id="clipPath12118"><path
         d="m 253.811,297.422 c -10.256,0 -19.813,2.978 -27.853,8.117 l 0,0 c 0,-0.014 0,-0.029 0,-0.043 l 0,0 c 0,-1.74 0.4,-3.423 1.149,-5.017 l 0,0 c 7.877,-4.503 16.993,-7.08 26.706,-7.08 l 0,0 c 12.097,0 23.265,3.996 32.272,10.737 l 0,0 c 0.054,0.449 0.082,0.902 0.082,1.36 l 0,0 c 0,1.009 -0.135,1.999 -0.394,2.963 l 0,0 c -8.799,-6.914 -19.899,-11.037 -31.962,-11.037"
         id="path12120" /></clipPath><clipPath
       clipPathUnits="userSpaceOnUse"
       id="clipPath12126"><path
         d="m -32767,32767 65534,0 0,-65534 -65534,0 0,65534 z"
         id="path12128" /></clipPath><radialGradient
       fx="-0.103439"
       fy="0.00920105"
       cx="0"
       cy="0"
       r="1"
       gradientUnits="userSpaceOnUse"
       gradientTransform="matrix(54.044861,0,0,-54.044846,261.33789,291.71973)"
       spreadMethod="pad"
       id="radialGradient12130"><stop
         style="stop-opacity:1;stop-color:#ffffff"
         offset="0"
         id="stop12132" /><stop
         style="stop-opacity:0;stop-color:#ffffff"
         offset="1"
         id="stop12134" /></radialGradient><mask
       maskUnits="userSpaceOnUse"
       x="0"
       y="0"
       width="1"
       height="1"
       id="mask12136"><g
         id="g12138"><g
           clip-path="url(#clipPath12126)"
           id="g12140"><g
             id="g12142"><g
               id="g12144"><path
                 d="m -32767,32767 65534,0 0,-65534 -65534,0 0,65534 z"
                 style="fill:url(#radialGradient12130);stroke:none"
                 id="path12146" /></g></g></g></g></mask><radialGradient
       fx="-0.103439"
       fy="0.00920105"
       cx="0"
       cy="0"
       r="1"
       gradientUnits="userSpaceOnUse"
       gradientTransform="matrix(54.044861,0,0,-54.044846,261.33789,291.71973)"
       spreadMethod="pad"
       id="radialGradient12152"><stop
         style="stop-opacity:1;stop-color:#ffffff"
         offset="0"
         id="stop12154" /><stop
         style="stop-opacity:1;stop-color:#ffffff"
         offset="1"
         id="stop12156" /></radialGradient></defs><sodipodi:namedview
     pagecolor="#ffffff"
     bordercolor="#666666"
     borderopacity="1"
     objecttolerance="10"
     gridtolerance="10"
     guidetolerance="10"
     inkscape:pageopacity="0"
     inkscape:pageshadow="2"
     inkscape:window-width="640"
     inkscape:window-height="480"
     id="namedview11398"
     showgrid="false"
     inkscape:zoom="0.38335413"
     inkscape:cx="316.875"
     inkscape:cy="307.80939"
     inkscape:window-x="0"
     inkscape:window-y="36"
     inkscape:window-maximized="0"
     inkscape:current-layer="g11404" /><g
     id="g11404"
     inkscape:groupmode="layer"
     inkscape:label="Logo Longevity"
     transform="matrix(1.25,0,0,-1.25,0,615.61875)"><path
       d="m 121.526,191.123 2.656,0 0,-26.578 -2.656,0 0,26.578 z"
       style="fill:#373535;fill-opacity:1;fill-rule:nonzero;stroke:none"
       id="path11406" /><g
       id="g11408"
       transform="translate(130.2891,164.5449)"><path
         d="m 0,0 0,26.578 0.578,0 17.689,-20.373 0,20.373 2.619,0 L 20.886,0 20.29,0 2.746,20.125 2.746,0 0,0 z"
         style="fill:#373535;fill-opacity:1;fill-rule:nonzero;stroke:none"
         id="path11410" /></g><g
       id="g11412"
       transform="translate(155.0054,188.521)"><path
         d="m 0,0 0,2.602 14.563,0 0,-2.602 -5.926,0 0,-23.976 -2.711,0 L 5.926,0 0,0 z"
         style="fill:#373535;fill-opacity:1;fill-rule:nonzero;stroke:none"
         id="path11414" /></g><g
       id="g11416"
       transform="translate(173.416,191.1226)"><path
         d="m 0,0 15.231,0 0,-2.602 -12.575,0 0,-8.329 12.467,0 0,-2.602 -12.467,0 0,-10.443 12.467,0 0,-2.602 L 0,-26.578 0,0 z"
         style="fill:#373535;fill-opacity:1;fill-rule:nonzero;stroke:none"
         id="path11418" /></g><g
       id="g11420"><g
         id="g11422"
         clip-path="url(#clipPath11424)"><g
           id="g11428"
           transform="translate(196.0371,188.521)"><path
             d="M 0,0 0,-9.034 4.579,-9.07 c 1.774,0 3.085,0.168 3.936,0.506 0.85,0.336 1.514,0.876 1.991,1.617 0.476,0.74 0.715,1.569 0.715,2.484 0,0.891 -0.242,1.701 -0.724,2.43 -0.483,0.729 -1.116,1.25 -1.9,1.563 C 7.813,-0.157 6.509,0 4.688,0 L 0,0 z m -2.655,2.602 5.294,0 c 2.951,0 4.95,-0.121 5.998,-0.362 1.578,-0.362 2.86,-1.137 3.848,-2.325 0.988,-1.187 1.482,-2.65 1.482,-4.387 0,-1.447 -0.341,-2.719 -1.021,-3.817 -0.68,-1.098 -1.653,-1.927 -2.918,-2.487 -1.264,-0.561 -3.011,-0.848 -5.24,-0.86 l 9.559,-12.34 -3.286,0 -9.559,12.34 -1.502,0 0,-12.34 -2.655,0 0,26.578 z"
             style="fill:#373535;fill-opacity:1;fill-rule:nonzero;stroke:none"
             id="path11430" /></g><g
           id="g11432"
           transform="translate(215.7129,164.5449)"><path
             d="m 0,0 0,26.578 0.578,0 17.689,-20.373 0,20.373 2.62,0 L 20.887,0 20.29,0 2.746,20.125 2.746,0 0,0 z"
             style="fill:#373535;fill-opacity:1;fill-rule:nonzero;stroke:none"
             id="path11434" /></g><g
           id="g11436"
           transform="translate(253.5918,185.4761)"><path
             d="m 0,0 -4.555,-9.621 9.087,0 L 0,0 z m 0.335,5.646 12.394,-26.577 -2.869,0 -4.179,8.744 -11.45,0 -4.14,-8.744 -2.963,0 12.557,26.577 0.65,0 z"
             style="fill:#373535;fill-opacity:1;fill-rule:nonzero;stroke:none"
             id="path11438" /></g><g
           id="g11440"
           transform="translate(264.8047,188.521)"><path
             d="m 0,0 0,2.602 14.563,0 0,-2.602 -5.927,0 0,-23.976 -2.71,0 L 5.926,0 0,0 z"
             style="fill:#373535;fill-opacity:1;fill-rule:nonzero;stroke:none"
             id="path11442" /></g><path
           d="m 282.817,191.123 2.656,0 0,-26.578 -2.656,0 0,26.578 z"
           style="fill:#373535;fill-opacity:1;fill-rule:nonzero;stroke:none"
           id="path11444" /><g
           id="g11446"
           transform="translate(304.3359,189.2075)"><path
             d="m 0,0 c -1.966,0 -3.83,-0.512 -5.592,-1.537 -1.762,-1.025 -3.137,-2.405 -4.126,-4.141 -0.989,-1.736 -1.484,-3.671 -1.484,-5.804 0,-3.159 1.095,-5.826 3.285,-8.001 2.189,-2.177 4.828,-3.265 7.917,-3.265 2.063,0 3.973,0.501 5.728,1.501 1.755,1.001 3.125,2.369 4.108,4.105 0.983,1.736 1.475,3.664 1.475,5.787 0,2.109 -0.492,4.017 -1.475,5.722 C 8.853,-3.927 7.468,-2.562 5.683,-1.537 3.897,-0.512 2.003,0 0,0 m -0.117,2.583 c 4.025,0 7.394,-1.343 10.106,-4.028 2.712,-2.687 4.068,-5.993 4.068,-9.92 0,-3.89 -1.353,-7.191 -4.059,-9.901 -2.706,-2.71 -6.005,-4.065 -9.898,-4.065 -3.942,0 -7.268,1.349 -9.98,4.047 -2.712,2.698 -4.068,5.963 -4.068,9.793 0,2.553 0.618,4.92 1.853,7.1 1.236,2.181 2.919,3.888 5.053,5.123 2.134,1.234 4.441,1.851 6.925,1.851"
             style="fill:#373535;fill-opacity:1;fill-rule:nonzero;stroke:none"
             id="path11448" /></g><g
           id="g11450"
           transform="translate(323.7412,164.5449)"><path
             d="m 0,0 0,26.578 0.578,0 17.689,-20.373 0,20.373 2.62,0 L 20.887,0 20.29,0 2.746,20.125 2.746,0 0,0 z"
             style="fill:#373535;fill-opacity:1;fill-rule:nonzero;stroke:none"
             id="path11452" /></g><g
           id="g11454"
           transform="translate(361.6201,185.4761)"><path
             d="m 0,0 -4.555,-9.621 9.087,0 L 0,0 z m 0.335,5.646 12.394,-26.577 -2.869,0 -4.179,8.744 -11.45,0 -4.14,-8.744 -2.963,0 12.557,26.577 0.65,0 z"
             style="fill:#373535;fill-opacity:1;fill-rule:nonzero;stroke:none"
             id="path11456" /></g><g
           id="g11458"
           transform="translate(378.4697,191.1226)"><path
             d="m 0,0 2.655,0 0,-24.012 10.227,0 0,-2.566 L 0,-26.578 0,0 z"
             style="fill:#373535;fill-opacity:1;fill-rule:nonzero;stroke:none"
             id="path11460" /></g><g
           id="g11462"
           transform="translate(106.3804,153.9453)"><path
             d="m 0,0 7.789,0 0,-33.49 11.349,0 0,-7.427 L 0,-40.917 0,0 z"
             style="fill:#0077bd;fill-opacity:1;fill-rule:nonzero;stroke:none"
             id="path11464" /></g><g
           id="g11466"
           transform="translate(150.6772,147.353)"><path
             d="m 0,0 c -3.787,0 -6.971,-1.317 -9.551,-3.95 -2.58,-2.633 -3.87,-5.98 -3.87,-10.041 0,-4.525 1.624,-8.104 4.873,-10.737 2.524,-2.059 5.42,-3.088 8.687,-3.088 3.694,0 6.84,1.336 9.439,4.005 2.599,2.671 3.899,5.962 3.899,9.875 0,3.894 -1.31,7.191 -3.927,9.889 C 6.933,-1.349 3.75,0 0,0 m 0.083,7.622 c 5.79,0 10.767,-2.096 14.933,-6.287 4.166,-4.191 6.249,-9.3 6.249,-15.326 0,-5.971 -2.056,-11.025 -6.165,-15.16 -4.111,-4.136 -9.098,-6.203 -14.961,-6.203 -6.142,0 -11.245,2.123 -15.308,6.37 -4.064,4.246 -6.096,9.291 -6.096,15.132 0,3.912 0.946,7.51 2.839,10.792 1.892,3.283 4.495,5.883 7.807,7.803 3.312,1.919 6.879,2.879 10.702,2.879"
             style="fill:#0077bd;fill-opacity:1;fill-rule:nonzero;stroke:none"
             id="path11468" /></g><g
           id="g11470"
           transform="translate(179.3135,153.9453)"><path
             d="m 0,0 7.471,0 17.508,-26.926 0,26.926 7.788,0 0,-40.917 -7.493,0 -17.486,26.842 0,-26.842 -7.788,0 L 0,0 z"
             style="fill:#0077bd;fill-opacity:1;fill-rule:nonzero;stroke:none"
             id="path11472" /></g><g
           id="g11474"
           transform="translate(259.2002,147.2695)"><path
             d="m 0,0 -5.484,-5.424 c -3.472,3.672 -7.518,5.507 -12.139,5.507 -4.028,0 -7.401,-1.334 -10.12,-4.005 -2.719,-2.67 -4.078,-5.915 -4.078,-9.736 0,-3.949 1.41,-7.297 4.232,-10.041 2.821,-2.745 6.302,-4.117 10.442,-4.117 2.692,0 4.961,0.566 6.808,1.697 1.848,1.131 3.337,2.902 4.47,5.313 l -11.85,0 0,7.315 20.583,0 0.056,-1.724 c 0,-3.579 -0.927,-6.973 -2.781,-10.181 -1.855,-3.208 -4.256,-5.656 -7.204,-7.343 -2.949,-1.688 -6.408,-2.532 -10.375,-2.532 -4.248,0 -8.036,0.923 -11.364,2.768 -3.329,1.845 -5.962,4.474 -7.899,7.886 -1.939,3.412 -2.907,7.093 -2.907,11.043 0,5.414 1.79,10.125 5.369,14.13 4.246,4.766 9.772,7.149 16.578,7.149 3.56,0 6.889,-0.659 9.985,-1.975 C -5.063,4.618 -2.504,2.708 0,0"
             style="fill:#0077bd;fill-opacity:1;fill-rule:nonzero;stroke:none"
             id="path11476" /></g><g
           id="g11478"
           transform="translate(269.2969,153.9453)"><path
             d="m 0,0 22.336,0 0,-7.622 -14.604,0 0,-7.399 14.604,0 0,-7.482 -14.604,0 0,-10.765 14.604,0 0,-7.649 L 0,-40.917 0,0 z"
             style="fill:#0077bd;fill-opacity:1;fill-rule:nonzero;stroke:none"
             id="path11480" /></g><g
           id="g11482"
           transform="translate(295.791,153.9453)"><path
             d="M 0,0 8.008,0 18.303,-29.067 28.747,0 l 7.998,0 -14.742,-40.917 -7.511,0 L 0,0 z"
             style="fill:#0077bd;fill-opacity:1;fill-rule:nonzero;stroke:none"
             id="path11484" /></g><path
           d="m 338.225,153.945 7.732,0 0,-40.917 -7.732,0 0,40.917 z"
           style="fill:#0077bd;fill-opacity:1;fill-rule:nonzero;stroke:none"
           id="path11486" /><g
           id="g11488"
           transform="translate(350.6855,153.9453)"><path
             d="m 0,0 22.614,0 0,-7.677 -7.454,0 0,-33.24 -7.9,0 0,33.24 -7.26,0 L 0,0 z"
             style="fill:#0077bd;fill-opacity:1;fill-rule:nonzero;stroke:none"
             id="path11490" /></g><g
           id="g11492"
           transform="translate(375.7344,153.9453)"><path
             d="M 0,0 8.361,0 15.995,-14.719 23.593,0 l 8.256,0 -11.975,-23.198 0,-17.719 -7.844,0 0,17.719 L 0,0 z"
             style="fill:#0077bd;fill-opacity:1;fill-rule:nonzero;stroke:none"
             id="path11494" /></g><g
           id="g11496"
           transform="translate(173.0557,95.4355)"><path
             d="m 0,0 -5.105,-10.786 10.187,0 L 0,0 z m 0.377,6.33 13.896,-29.797 -3.216,0 -4.688,9.804 -12.836,0 -4.642,-9.804 -3.322,0 14.077,29.797 0.731,0 z"
             style="fill:#373535;fill-opacity:1;fill-rule:nonzero;stroke:none"
             id="path11498" /></g><g
           id="g11500"
           transform="translate(191.9463,101.7656)"><path
             d="m 0,0 2.978,0 0,-26.921 11.464,0 0,-2.876 L 0,-29.797 0,0 z"
             style="fill:#373535;fill-opacity:1;fill-rule:nonzero;stroke:none"
             id="path11502" /></g><g
           id="g11504"
           transform="translate(211.1084,101.7656)"><path
             d="m 0,0 2.978,0 0,-26.921 11.464,0 0,-2.876 L 0,-29.797 0,0 z"
             style="fill:#373535;fill-opacity:1;fill-rule:nonzero;stroke:none"
             id="path11506" /></g><path
           d="m 229.845,101.766 2.978,0 0,-29.797 -2.978,0 0,29.797 z"
           style="fill:#373535;fill-opacity:1;fill-rule:nonzero;stroke:none"
           id="path11508" /><g
           id="g11510"
           transform="translate(251.4473,95.4355)"><path
             d="m 0,0 -5.105,-10.786 10.186,0 L 0,0 z m 0.376,6.33 13.896,-29.797 -3.216,0 -4.687,9.804 -12.837,0 -4.641,-9.804 -3.323,0 14.078,29.797 0.73,0 z"
             style="fill:#373535;fill-opacity:1;fill-rule:nonzero;stroke:none"
             id="path11512" /></g><g
           id="g11514"
           transform="translate(270.3584,71.9688)"><path
             d="m 0,0 0,29.797 0.647,0 19.832,-22.841 0,22.841 2.937,0 L 23.416,0 22.748,0 3.079,22.563 3.079,0 0,0 z"
             style="fill:#373535;fill-opacity:1;fill-rule:nonzero;stroke:none"
             id="path11516" /></g><g
           id="g11518"
           transform="translate(328.7773,96.2363)"><path
             d="m 0,0 -2.35,-1.804 c -1.296,1.689 -2.852,2.968 -4.669,3.839 -1.816,0.871 -3.811,1.307 -5.985,1.307 -2.378,0 -4.578,-0.571 -6.604,-1.712 -2.026,-1.141 -3.595,-2.674 -4.709,-4.598 -1.115,-1.925 -1.671,-4.089 -1.671,-6.492 0,-3.633 1.245,-6.664 3.737,-9.096 2.491,-2.43 5.634,-3.645 9.429,-3.645 4.173,0 7.664,1.634 10.472,4.901 L 0,-19.082 c -1.485,-1.891 -3.339,-3.353 -5.561,-4.386 -2.22,-1.033 -4.702,-1.549 -7.443,-1.549 -5.213,0 -9.325,1.735 -12.337,5.205 -2.525,2.931 -3.788,6.469 -3.788,10.615 0,4.362 1.529,8.032 4.589,11.01 3.059,2.977 6.89,4.466 11.495,4.466 2.782,0 5.294,-0.55 7.535,-1.651 C -3.268,3.527 -1.432,1.984 0,0"
             style="fill:#373535;fill-opacity:1;fill-rule:nonzero;stroke:none"
             id="path11520" /></g><g
           id="g11522"
           transform="translate(334.7734,101.7656)"><path
             d="m 0,0 17.076,0 0,-2.917 -14.098,0 0,-9.338 13.976,0 0,-2.917 -13.976,0 0,-11.708 13.976,0 0,-2.917 L 0,-29.797 0,0 z"
             style="fill:#373535;fill-opacity:1;fill-rule:nonzero;stroke:none"
             id="path11524" /></g><g
           id="g11526"
           transform="translate(95.4136,132.2183)"><path
             d="m 0,0 c 0,-2.638 -2.139,-4.776 -4.776,-4.776 -2.638,0 -4.775,2.138 -4.775,4.776 0,2.638 2.137,4.776 4.775,4.776 C -2.139,4.776 0,2.638 0,0"
             style="fill:#0077bd;fill-opacity:1;fill-rule:nonzero;stroke:none"
             id="path11528" /></g><g
           id="g11530"
           transform="translate(421.1377,132.2183)"><path
             d="m 0,0 c 0,-2.638 -2.139,-4.776 -4.776,-4.776 -2.638,0 -4.777,2.138 -4.777,4.776 0,2.638 2.139,4.776 4.777,4.776 C -2.139,4.776 0,2.638 0,0"
             style="fill:#0077bd;fill-opacity:1;fill-rule:nonzero;stroke:none"
             id="path11532" /></g></g></g><g
       id="g11534"><g
         id="g11536"
         clip-path="url(#clipPath11538)"><g
           id="g11542"
           transform="translate(238.5947,398.6421)"><path
             d="m 0,0 c 0,0 -12.403,-18.306 16.819,-36.592 0,0 26.896,17.317 17.688,35.693 C 33.551,1.007 23.193,2.502 15.932,2.703 9.42,2.877 1.033,0.78 0,0"
             style="fill:#fbb055;fill-opacity:1;fill-rule:nonzero;stroke:none"
             id="path11544" /></g></g></g><g
       id="g11546"><g
         id="g11548"
         clip-path="url(#clipPath11550)"><g
           id="g11554"><g
             id="g11556"><path
               d="m 229.034,339.611 c -10.248,-8.422 -13.666,-18.181 -13.68,-25.839 l 0,0 c -14.135,11.509 -15.856,34.464 -14.285,43.744 l 0,0 c -0.917,-4.189 -1.027,-5.49 -1.027,-10.139 l 0,0 c 0,-14.936 6.09,-28.437 15.909,-38.198 l 0,0 c 0.012,-0.052 0.023,-0.104 0.035,-0.156 l 0,0 c 3.433,-3.38 7.318,-6.304 11.554,-8.672 l 0,0 c -11.491,24.981 41.988,25.857 59.409,62.129 l 0,0 c 4.717,9.828 3.229,19.549 -0.38,27.785 l 0,0 c -3.317,2.541 -6.941,4.708 -10.803,6.431 l 0,0 c 10.253,-22.496 -26.33,-40.32 -46.732,-57.085 m -27.965,17.905 c 0.129,0.588 0.274,1.233 0.436,1.953 l 0,0 c -0.163,-0.555 -0.31,-1.21 -0.436,-1.953"
               style="fill:url(#linearGradient11558);stroke:none"
               id="path11570" /></g></g></g></g><g
       id="g11572"><g
         id="g11574"
         clip-path="url(#clipPath11576)"><g
           id="g11580"><g
             id="g11582"
             clip-path="url(#clipPath11584)"><g
               id="g11588"><g
                 id="g11590"><path
                   d="m 307.332,354.9 c -0.215,1.544 -0.476,3.071 -0.818,4.569 0.312,-1.561 0.586,-3.148 0.779,-4.755 0.012,0.06 0.026,0.126 0.039,0.186"
                   style="fill:url(#linearGradient11592);stroke:none"
                   id="path11600" /></g></g></g></g></g></g><g
       id="g11602"><g
         id="g11604"
         clip-path="url(#clipPath11606)"><g
           id="g11610"><g
             id="g11612"><path
               d="m 229.841,395.746 c -0.999,-0.511 -1.914,-1.012 -2.731,-1.481 l 0,0 c -0.684,-1.294 -1.47,-2.816 -1.612,-3.125 l 0,0 c -3.835,-8.36 -5.55,-18.324 -0.739,-28.42 l 0,0 c 12.832,-26.921 41.09,-32.192 55.958,-45.788 l 0,0 c 1.948,-1.782 4.29,-4.466 5.279,-9.355 l 0,0 c 0,0 9.83,6.176 13.505,12.325 l 0,0 c 0.097,0.163 0.251,0.634 0.45,1.351 l 0,0 c -0.919,-1.506 -2.699,-3.24 -3.81,-4.621 l 0,0 c -0.246,6.852 -4.466,15.605 -13.547,23.034 l 0,0 c -21.704,17.756 -59.705,33.109 -46.46,58.565 l 0,0 c 0.014,0.028 0.054,0.099 0.109,0.196 l 0,0 c -2.202,-0.758 -4.34,-1.656 -6.402,-2.681"
               style="fill:url(#linearGradient11614);stroke:none"
               id="path11624" /></g></g></g></g><g
       id="g11626"><g
         id="g11628"
         clip-path="url(#clipPath11630)"><g
           id="g11634"><g
             id="g11636" /><g
             id="g11714"><g
               clip-path="url(#clipPath11638)"
               opacity="0.800003"
               id="g11716"><g
                 id="g11718"><g
                   clip-path="url(#clipPath11642)"
                   id="g11720"><g
                     id="g11722"><g
                       id="g11724" /><g
                       mask="url(#mask11658)"
                       id="g11726"><g
                         id="g11728"><path
                           d="m 299.397,319.909 c 0.023,0.037 0.05,0.075 0.074,0.112 0.007,0.011 0.015,0.035 0.022,0.049 -0.037,-0.054 -0.081,-0.109 -0.119,-0.164 l 0.023,0.003 z"
                           style="fill:url(#linearGradient11670);stroke:none"
                           id="path11730" /></g></g></g></g></g><g
                 id="g11732"><g
                   clip-path="url(#clipPath11678)"
                   id="g11734"><g
                     id="g11736"><g
                       id="g11738" /><g
                       mask="url(#mask11694)"
                       id="g11740"><g
                         id="g11742"><path
                           d="m 277.433,320.816 c -15.485,11.416 -40.27,17.884 -52.051,42.6 -4.811,10.096 -3.095,20.06 0.74,28.42 0.116,0.253 0.67,1.331 1.244,2.425 -0.042,-0.024 -0.091,-0.049 -0.131,-0.072 -0.683,-1.294 -1.469,-2.816 -1.611,-3.125 -3.835,-8.36 -5.551,-18.324 -0.739,-28.419 12.832,-26.921 41.091,-32.193 55.957,-45.789 1.353,-1.237 2.886,-2.93 4.033,-5.472 -1.162,4.133 -6.061,8.414 -7.442,9.432"
                           style="fill:url(#linearGradient11706);stroke:none"
                           id="path11744" /></g></g></g></g></g></g></g></g></g></g><g
       id="g11746"><g
         id="g11748"
         clip-path="url(#clipPath11750)"><g
           id="g11754"><g
             id="g11756"><path
               d="m 199.766,347.442 c 0,-29.848 24.196,-54.043 54.047,-54.043 l 0,0 c 29.845,0 54.042,24.195 54.042,54.043 l 0,0 c 0,29.849 -24.197,54.044 -54.042,54.044 l 0,0 c -29.851,0 -54.047,-24.195 -54.047,-54.044 m 2.31,1.541 c 0,28.571 23.161,51.734 51.737,51.734 l 0,0 c 28.571,0 51.731,-23.163 51.731,-51.734 l 0,0 c 0,-28.571 -23.16,-51.734 -51.731,-51.734 l 0,0 c -28.576,0 -51.737,23.163 -51.737,51.734"
               style="fill:url(#linearGradient11758);stroke:none"
               id="path11768" /></g></g></g></g><g
       id="g11770"><g
         id="g11772"
         clip-path="url(#clipPath11774)"><g
           id="g11778"><g
             id="g11780"><path
               d="m 139.159,301.91 c -1.811,37.233 20.973,103.674 87.13,123.612 l 0,0 -20.547,7.102 -7.095,12.921 C 155.161,425.467 119.121,364.984 139.159,301.91"
               style="fill:url(#linearGradient11782);stroke:none"
               id="path11792" /></g></g></g></g><g
       id="g11794"><g
         id="g11796"
         clip-path="url(#clipPath11798)"><g
           id="g11802"><g
             id="g11804"><path
               d="m 141.511,299.446 c 10.532,-34.101 39.834,-65.359 80.087,-75.357 l 0,0 c 12.838,-3.189 20.259,-1.941 22.908,-0.032 l 0,0 c -12.218,0.28 -73.534,19.217 -95.612,121.401 l 0,0 c -3.721,-15.573 -7.677,-27.489 -7.383,-46.012"
               style="fill:url(#linearGradient11806);stroke:none"
               id="path11816" /></g></g></g></g><g
       id="g11818"><g
         id="g11820"
         clip-path="url(#clipPath11822)"><g
           id="g11826"><g
             id="g11828"><path
               d="m 180.779,331.259 c 0,0 7.155,-23.042 11.547,-36.293 l 0,0 c 4.392,-13.25 42.994,-41.595 42.994,-41.595 l 0,0 c 0,0 -2.273,1.118 -5.978,2.897 l 0,0 c 3.959,-8.047 0.045,-19.581 -5.882,-23.136 l 0,0 c 3.357,-4.572 17.903,-8.651 21.448,-8.651 l 0,0 c 3.289,5.417 11.57,25.369 0.912,49.389 l 0,0 c -3.076,6.928 -9.635,13.293 -17.711,15.717 l 0,0 c -5.438,1.63 -16.055,22.503 -21.401,18.622 l 0,0 c 0,0 -2.862,-1.429 2.794,-11.419 l 0,0 c 2.117,-3.737 5.733,-10.343 5.733,-10.343 l 0,0 C 203.218,297.065 194.26,317.134 193,320.231 l 0,0 c -4.008,9.853 -8.562,11.242 -10.811,11.242 l 0,0 c -0.883,0 -1.41,-0.214 -1.41,-0.214 m 34.456,-44.812 c 0.002,-0.003 0.034,-0.048 0.075,-0.107 l 0,0 c -0.029,0.037 -0.045,0.064 -0.075,0.107 m 1.228,-1.735 c 0.026,-0.038 0.041,-0.059 0.04,-0.059 l 0,0 c 0,0 -0.013,0.019 -0.04,0.059"
               style="fill:url(#linearGradient11830);stroke:none"
               id="path11838" /></g></g></g></g><g
       id="g11840"><g
         id="g11842"
         clip-path="url(#clipPath11844)"><g
           id="g11848"><g
             id="g11850" /><g
             id="g11870"><g
               clip-path="url(#clipPath11852)"
               opacity="0.259995"
               id="g11872"><g
                 id="g11874"><g
                   clip-path="url(#clipPath11856)"
                   id="g11876"><g
                     id="g11878"><g
                       id="g11880"><path
                         d="m 230.692,250.479 c 0,0 -0.305,0.273 -0.843,0.764 0.018,-0.096 0.044,-0.189 0.063,-0.285 0.5,-0.305 0.78,-0.479 0.78,-0.479"
                         style="fill:url(#linearGradient11860);stroke:none"
                         id="path11882" /></g></g></g></g><g
                 transform="translate(212.9541,291.2739)"
                 id="g11884"><path
                   d="m 0,0 c -0.829,1.901 -1.729,3.962 -2.432,5.537 -4.311,9.646 -2.131,11.39 -1.756,11.606 -0.548,0.01 -1.065,-0.128 -1.537,-0.473 0,0 -2.862,-1.428 2.796,-11.419 C -2.082,3.756 -0.998,1.805 0,0"
                   style="fill:#ffffff;fill-opacity:1;fill-rule:nonzero;stroke:none"
                   id="path11886" /></g><g
                 transform="translate(193.688,297.2144)"
                 id="g11888"><path
                   d="m 0,0 c -2.383,10.388 -5.824,24.245 -7.319,31.341 -2.813,2.747 -4.867,1.778 -4.867,1.778 0,0 7.391,-21.791 11.784,-35.041 C 0.766,-5.444 5.139,-10.823 9.77,-15.661 5.186,-9.996 0.883,-3.863 0,0"
                   style="fill:#ffffff;fill-opacity:1;fill-rule:nonzero;stroke:none"
                   id="path11890" /></g><g
                 transform="translate(244.9209,272.9434)"
                 id="g11892"><path
                   d="m 0,0 c -3.075,6.928 -9.63,13.293 -17.707,15.717 -2.033,0.609 -4.787,3.906 -7.723,7.596 2.749,-4.243 5.363,-8.189 7.451,-9.038 C -10.166,11.096 -4.551,4.029 -1.838,-3.049 8.795,-30.807 -0.415,-45.923 -0.415,-45.923 2.873,-40.503 10.661,-24.021 0,0"
                   style="fill:#ffffff;fill-opacity:1;fill-rule:nonzero;stroke:none"
                   id="path11894" /></g></g></g></g></g></g><g
       id="g11896"><g
         id="g11898"
         clip-path="url(#clipPath11900)"><g
           id="g11904"><g
             id="g11906"><path
               d="m 301.258,432.093 -20.547,-7.102 c 66.156,-19.937 88.941,-86.376 87.13,-123.612 l 0,0 c 20.038,63.077 -16.001,123.559 -59.488,143.635 l 0,0 -7.095,-12.921 z"
               style="fill:url(#linearGradient11908);stroke:none"
               id="path11918" /></g></g></g></g><g
       id="g11920"><g
         id="g11922"
         clip-path="url(#clipPath11924)"><g
           id="g11928"><g
             id="g11930"><path
               d="m 262.494,223.528 c 2.649,-1.912 10.07,-3.156 22.909,0.032 l 0,0 c 40.253,9.999 69.554,41.253 80.086,75.355 l 0,0 c 0.294,18.526 -3.662,30.438 -7.384,46.011 l 0,0 C 336.029,242.743 274.711,223.806 262.494,223.528"
               style="fill:url(#linearGradient11932);stroke:none"
               id="path11942" /></g></g></g></g><g
       id="g11944"><g
         id="g11946"
         clip-path="url(#clipPath11948)"><g
           id="g11952"><g
             id="g11954"><path
               d="m 314.001,319.702 c -1.261,-3.099 -10.219,-23.168 -22.237,-33.786 l 0,0 c 0,0 3.616,6.607 5.733,10.342 l 0,0 c 5.656,9.991 2.794,11.42 2.794,11.42 l 0,0 c -5.346,3.884 -15.962,-16.992 -21.401,-18.622 l 0,0 c -8.076,-2.422 -14.634,-8.79 -17.709,-15.718 l 0,0 c -10.66,-24.02 -1.976,-43.852 1.313,-49.269 l 0,0 c 5.106,0.412 17.448,3.92 21.534,8.34 l 0,0 c -5.926,3.557 -10.329,15.284 -6.37,23.327 l 0,0 c -3.706,-1.775 -5.979,-2.896 -5.979,-2.896 l 0,0 c 0,0 38.602,28.345 42.995,41.595 l 0,0 c 4.392,13.25 11.548,36.296 11.548,36.296 l 0,0 c 0,0 -0.527,0.214 -1.409,0.214 l 0,0 c -2.249,0 -6.803,-1.388 -10.812,-11.243 m -22.276,-33.841 c -0.01,-0.016 -0.021,-0.032 -0.035,-0.05 l 0,0 c 0.013,0.018 0.025,0.035 0.035,0.05 m -1.144,-1.617 c 0,0 0,0 0,0 m -0.044,-0.064 c -0.028,-0.04 -0.041,-0.058 -0.041,-0.058 l 0,0 c 0,0 0.014,0.021 0.041,0.058"
               style="fill:url(#linearGradient11956);stroke:none"
               id="path11964" /></g></g></g></g><g
       id="g11966"><g
         id="g11968"
         clip-path="url(#clipPath11970)"><g
           id="g11974"><g
             id="g11976" /><g
             id="g12000"
             mask="url(#mask11988)"><g
               id="g12002"><path
                 d="m 314.001,319.702 c -1.261,-3.099 -10.219,-23.168 -22.237,-33.786 l 0,0 c 0,0 3.616,6.607 5.733,10.342 l 0,0 c 5.656,9.991 2.794,11.42 2.794,11.42 l 0,0 c -5.346,3.884 -15.962,-16.992 -21.401,-18.622 l 0,0 c -8.076,-2.422 -14.634,-8.79 -17.709,-15.718 l 0,0 c -10.66,-24.02 -1.976,-43.852 1.313,-49.269 l 0,0 c 4.687,0.412 16.463,3.389 21.534,8.34 l 0,0 c -5.926,3.557 -10.329,15.284 -6.37,23.327 l 0,0 c -3.706,-1.775 -5.979,-2.896 -5.979,-2.896 l 0,0 c 0,0 38.602,28.345 42.995,41.595 l 0,0 c 4.392,13.25 11.548,36.296 11.548,36.296 l 0,0 c 0,0 -0.527,0.214 -1.409,0.214 l 0,0 c -2.249,0 -6.803,-1.388 -10.812,-11.243 m -22.276,-33.841 c -0.01,-0.016 -0.021,-0.032 -0.035,-0.05 l 0,0 c 0.013,0.018 0.025,0.035 0.035,0.05 m -1.144,-1.617 c 0,0 0,0 0,0 m -0.044,-0.064 c -0.028,-0.04 -0.041,-0.058 -0.041,-0.058 l 0,0 c 0,0 0.014,0.021 0.041,0.058"
                 style="fill:url(#radialGradient12004);stroke:none"
                 id="path12010" /></g></g></g></g></g><g
       id="g12012"><g
         id="g12014"
         clip-path="url(#clipPath12016)"><g
           id="g12020"><g
             id="g12022" /><g
             id="g12042"><g
               clip-path="url(#clipPath12024)"
               opacity="0.259995"
               id="g12044"><g
                 id="g12046"><g
                   clip-path="url(#clipPath12028)"
                   id="g12048"><g
                     id="g12050"><g
                       id="g12052"><path
                         d="m 276.308,249.948 c 0,0 0.305,0.273 0.843,0.764 -0.019,-0.094 -0.045,-0.19 -0.063,-0.283 -0.5,-0.307 -0.78,-0.481 -0.78,-0.481"
                         style="fill:url(#linearGradient12032);stroke:none"
                         id="path12054" /></g></g></g></g><g
                 transform="translate(294.0449,290.7427)"
                 id="g12056"><path
                   d="m 0,0 c 0.829,1.904 1.729,3.962 2.433,5.54 4.311,9.646 2.131,11.387 1.756,11.603 0.547,0.01 1.064,-0.128 1.537,-0.47 0,0 2.862,-1.428 -2.796,-11.422 C 2.083,3.759 0.999,1.808 0,0"
                   style="fill:#ffffff;fill-opacity:1;fill-rule:nonzero;stroke:none"
                   id="path12058" /></g><g
                 transform="translate(313.3115,296.6855)"
                 id="g12060"><path
                   d="m 0,0 c 2.383,10.388 5.824,24.245 7.319,31.338 2.813,2.747 4.868,1.778 4.868,1.778 0,0 -7.391,-21.791 -11.784,-35.038 C -0.765,-5.443 -5.138,-10.826 -9.77,-15.661 -5.185,-9.998 -0.882,-3.866 0,0"
                   style="fill:#ffffff;fill-opacity:1;fill-rule:nonzero;stroke:none"
                   id="path12062" /></g><g
                 transform="translate(262.0781,272.4146)"
                 id="g12064"><path
                   d="m 0,0 c 3.076,6.925 9.631,13.293 17.708,15.717 2.033,0.609 4.787,3.906 7.723,7.593 C 22.682,19.07 20.068,15.122 17.979,14.273 10.167,11.093 4.551,4.026 1.839,-3.051 -8.794,-30.807 0.416,-45.923 0.416,-45.923 -2.871,-40.506 -10.66,-24.023 0,0"
                   style="fill:#ffffff;fill-opacity:1;fill-rule:nonzero;stroke:none"
                   id="path12066" /></g></g></g></g></g></g><g
       id="g12068"><g
         id="g12070"
         clip-path="url(#clipPath12072)"><g
           id="g12076"><g
             id="g12078" /><g
             id="g12102"
             mask="url(#mask12090)"><g
               id="g12104"><path
                 d="m 180.777,331.259 c 0,0 7.155,-23.042 11.549,-36.293 l 0,0 c 4.391,-13.25 42.993,-41.595 42.993,-41.595 l 0,0 c 0,0 -2.273,1.118 -5.979,2.897 l 0,0 c 3.96,-8.047 0.047,-19.581 -5.88,-23.136 l 0,0 c 5.072,-4.953 16.49,-8.472 21.448,-8.651 l 0,0 c 3.29,5.417 11.57,25.369 0.911,49.389 l 0,0 c -3.076,6.928 -9.635,13.293 -17.71,15.717 l 0,0 c -5.439,1.63 -16.056,22.503 -21.402,18.622 l 0,0 c 0,0 -2.862,-1.429 2.794,-11.419 l 0,0 c 2.117,-3.737 5.733,-10.343 5.733,-10.343 l 0,0 c -12.018,10.618 -20.975,30.687 -22.235,33.784 l 0,0 c -4.008,9.853 -8.562,11.242 -10.812,11.242 l 0,0 c -0.883,0 -1.41,-0.214 -1.41,-0.214 m 34.457,-44.812 c 0.003,-0.003 0.034,-0.048 0.074,-0.107 l 0,0 c -0.028,0.037 -0.044,0.064 -0.074,0.107 m 1.183,-1.671 c 0.001,-0.002 0.002,-0.004 0.003,-0.005 l 0,0 c -10e-4,10e-4 -0.002,0.003 -0.003,0.005 m 0.044,-0.064 c 0.027,-0.038 0.041,-0.059 0.041,-0.059 l 0,0 c 0,0 -0.013,0.019 -0.041,0.059"
                 style="fill:url(#radialGradient12106);stroke:none"
                 id="path12112" /></g></g></g></g></g><g
       id="g12114"><g
         id="g12116"
         clip-path="url(#clipPath12118)"><g
           id="g12122"><g
             id="g12124" /><g
             id="g12148"
             mask="url(#mask12136)"><g
               id="g12150"><path
                 d="m 253.811,297.422 c -10.256,0 -19.813,2.978 -27.853,8.117 l 0,0 c 0,-0.014 0,-0.029 0,-0.043 l 0,0 c 0,-1.74 0.4,-3.423 1.149,-5.017 l 0,0 c 7.877,-4.503 16.993,-7.08 26.706,-7.08 l 0,0 c 12.097,0 23.265,3.996 32.272,10.737 l 0,0 c 0.054,0.449 0.082,0.902 0.082,1.36 l 0,0 c 0,1.009 -0.135,1.999 -0.394,2.963 l 0,0 c -8.799,-6.914 -19.899,-11.037 -31.962,-11.037"
                 style="fill:url(#radialGradient12152);stroke:none"
                 id="path12158" /></g></g></g></g></g></g></svg>